<svg xmlns="http://www.w3.org/2000/svg" width="141.79" height="35" viewBox="0 0 141.79 35"><rect class="svg__rect" x="0" y="0" width="141.79" height="35" fill="#E22E2E"/><rect class="svg__rect" x="141.79" y="0" width="0" height="35" fill="#389AD5"/><path class="svg__text" d="M16.67 22L14.22 22L14.22 13.47L16.74 13.47Q17.87 13.47 18.74 13.97Q19.62 14.48 20.10 15.40Q20.58 16.33 20.58 17.52L20.58 17.52L20.58 17.95Q20.58 19.16 20.10 20.08Q19.61 21.00 18.72 21.50Q17.83 22 16.67 22L16.67 22ZM15.70 14.66L15.70 20.82L16.67 20.82Q17.83 20.82 18.46 20.09Q19.08 19.36 19.09 17.99L19.09 17.99L19.09 17.52Q19.09 16.13 18.49 15.40Q17.89 14.66 16.74 14.66L16.74 14.66L15.70 14.66ZM24.78 18.00L24.78 18.00L24.78 17.52Q24.78 16.28 25.22 15.32Q25.66 14.37 26.47 13.86Q27.27 13.35 28.31 13.35Q29.36 13.35 30.16 13.85Q30.97 14.35 31.41 15.29Q31.85 16.23 31.85 17.48L31.85 17.48L31.85 17.96Q31.85 19.21 31.42 20.16Q30.99 21.10 30.18 21.61Q29.38 22.12 28.33 22.12L28.33 22.12Q27.29 22.12 26.48 21.61Q25.67 21.10 25.22 20.17Q24.78 19.23 24.78 18.00ZM26.26 17.46L26.26 17.96Q26.26 19.36 26.81 20.13Q27.35 20.90 28.33 20.90L28.33 20.90Q29.31 20.90 29.84 20.15Q30.37 19.40 30.37 17.96L30.37 17.96L30.37 17.51Q30.37 16.09 29.84 15.34Q29.30 14.58 28.31 14.58L28.31 14.58Q27.35 14.58 26.81 15.33Q26.27 16.09 26.26 17.46L26.26 17.46ZM37.80 22L36.32 22L36.32 13.47L37.80 13.47L41.62 19.54L41.62 13.47L43.09 13.47L43.09 22L41.60 22L37.80 15.95L37.80 22ZM48.61 22L47.06 22L50.29 13.47L51.62 13.47L54.85 22L53.30 22L52.60 20.01L49.30 20.01L48.61 22ZM50.95 15.28L49.71 18.82L52.19 18.82L50.95 15.28ZM60.48 14.66L57.85 14.66L57.85 13.47L64.61 13.47L64.61 14.66L61.95 14.66L61.95 22L60.48 22L60.48 14.66ZM73.95 22L68.37 22L68.37 13.47L73.91 13.47L73.91 14.66L69.85 14.66L69.85 17.02L73.36 17.02L73.36 18.19L69.85 18.19L69.85 20.82L73.95 20.82L73.95 22ZM85.80 14.66L83.16 14.66L83.16 13.47L89.93 13.47L89.93 14.66L87.27 14.66L87.27 22L85.80 22L85.80 14.66ZM93.42 18.00L93.42 18.00L93.42 17.52Q93.42 16.28 93.86 15.32Q94.30 14.37 95.11 13.86Q95.91 13.35 96.96 13.35Q98.00 13.35 98.81 13.85Q99.61 14.35 100.05 15.29Q100.49 16.23 100.50 17.48L100.50 17.48L100.50 17.96Q100.50 19.21 100.06 20.16Q99.63 21.10 98.82 21.61Q98.02 22.12 96.97 22.12L96.97 22.12Q95.93 22.12 95.12 21.61Q94.31 21.10 93.87 20.17Q93.42 19.23 93.42 18.00ZM94.90 17.46L94.90 17.96Q94.90 19.36 95.45 20.13Q96.00 20.90 96.97 20.90L96.97 20.90Q97.95 20.90 98.48 20.15Q99.01 19.40 99.01 17.96L99.01 17.96L99.01 17.51Q99.01 16.09 98.48 15.34Q97.94 14.58 96.96 14.58L96.96 14.58Q96.00 14.58 95.45 15.33Q94.91 16.09 94.90 17.46L94.90 17.46ZM112.41 22L110.94 22L110.94 13.47L112.86 13.47L115.32 20.01L117.78 13.47L119.69 13.47L119.69 22L118.22 22L118.22 19.19L118.36 15.43L115.84 22L114.78 22L112.27 15.43L112.41 19.19L112.41 22ZM130.01 22L124.43 22L124.43 13.47L129.97 13.47L129.97 14.66L125.91 14.66L125.91 17.02L129.42 17.02L129.42 18.19L125.91 18.19L125.91 20.82L130.01 20.82L130.01 22Z" fill="#FFFFFF"/><path class="svg__text" d="" fill="#FFFFFF" x="154.79"/></svg>